<mxfile host="app.diagrams.net" modified="2024-04-05T05:46:02.880Z" agent="Mozilla/5.0 (Windows NT 10.0; Win64; x64) AppleWebKit/537.36 (KHTML, like Gecko) Chrome/123.0.0.0 Safari/537.36" etag="D6ype-NavZnNKcCA-gpi" version="24.2.2" type="device">
  <diagram name="Page-1" id="gXwp2Pn6xsZLII43Zq6d">
    <mxGraphModel dx="2359" dy="1877" grid="1" gridSize="10" guides="1" tooltips="1" connect="1" arrows="1" fold="1" page="1" pageScale="1" pageWidth="850" pageHeight="1100" math="0" shadow="0">
      <root>
        <mxCell id="0" />
        <mxCell id="1" parent="0" />
        <mxCell id="-x_1tK4yJzvQ5M3ZGs4e-1" value="&lt;font style=&quot;font-size: 16px;&quot;&gt;Item&lt;/font&gt;" style="rounded=0;whiteSpace=wrap;html=1;" vertex="1" parent="1">
          <mxGeometry x="130" y="90" width="120" height="60" as="geometry" />
        </mxCell>
        <mxCell id="-x_1tK4yJzvQ5M3ZGs4e-2" value="&lt;font style=&quot;font-size: 16px;&quot;&gt;ItemGroup&lt;/font&gt;" style="rounded=0;whiteSpace=wrap;html=1;" vertex="1" parent="1">
          <mxGeometry x="130" y="260" width="120" height="60" as="geometry" />
        </mxCell>
        <mxCell id="-x_1tK4yJzvQ5M3ZGs4e-3" value="&lt;font style=&quot;font-size: 16px;&quot;&gt;Customer&lt;/font&gt;&lt;span style=&quot;color: rgba(0, 0, 0, 0); font-family: monospace; font-size: 0px; text-align: start; text-wrap: nowrap;&quot;&gt;%3CmxGraphModel%3E%3Croot%3E%3CmxCell%20id%3D%220%22%2F%3E%3CmxCell%20id%3D%221%22%20parent%3D%220%22%2F%3E%3CmxCell%20id%3D%222%22%20value%3D%22%26lt%3Bfont%20style%3D%26quot%3Bfont-size%3A%2016px%3B%26quot%3B%26gt%3BItem%26lt%3B%2Ffont%26gt%3B%22%20style%3D%22rounded%3D0%3BwhiteSpace%3Dwrap%3Bhtml%3D1%3B%22%20vertex%3D%221%22%20parent%3D%221%22%3E%3CmxGeometry%20x%3D%22120%22%20y%3D%22130%22%20width%3D%22120%22%20height%3D%2260%22%20as%3D%22geometry%22%2F%3E%3C%2FmxCell%3E%3C%2Froot%3E%3C%2FmxGraphModel%3E&lt;/span&gt;" style="rounded=0;whiteSpace=wrap;html=1;" vertex="1" parent="1">
          <mxGeometry x="320" width="120" height="60" as="geometry" />
        </mxCell>
        <mxCell id="-x_1tK4yJzvQ5M3ZGs4e-4" value="&lt;span style=&quot;font-size: 16px;&quot;&gt;Order&lt;/span&gt;" style="rounded=0;whiteSpace=wrap;html=1;" vertex="1" parent="1">
          <mxGeometry x="340" y="210" width="120" height="60" as="geometry" />
        </mxCell>
        <mxCell id="-x_1tK4yJzvQ5M3ZGs4e-5" value="&lt;font style=&quot;font-size: 16px;&quot;&gt;PaymentMethod&lt;/font&gt;" style="rounded=0;whiteSpace=wrap;html=1;" vertex="1" parent="1">
          <mxGeometry x="560" y="110" width="150" height="60" as="geometry" />
        </mxCell>
        <mxCell id="-x_1tK4yJzvQ5M3ZGs4e-6" value="&lt;span style=&quot;font-size: 16px;&quot;&gt;OrderStatus&lt;/span&gt;&lt;span style=&quot;color: rgba(0, 0, 0, 0); font-family: monospace; font-size: 0px; text-align: start; text-wrap: nowrap;&quot;&gt;%3CmxGraphModel%3E%3Croot%3E%3CmxCell%20id%3D%220%22%2F%3E%3CmxCell%20id%3D%221%22%20parent%3D%220%22%2F%3E%3CmxCell%20id%3D%222%22%20value%3D%22%26lt%3Bfont%20style%3D%26quot%3Bfont-size%3A%2016px%3B%26quot%3B%26gt%3BItem%26lt%3B%2Ffont%26gt%3B%22%20style%3D%22rounded%3D0%3BwhiteSpace%3Dwrap%3Bhtml%3D1%3B%22%20vertex%3D%221%22%20parent%3D%221%22%3E%3CmxGeometry%20x%3D%22120%22%20y%3D%22130%22%20width%3D%22120%22%20height%3D%2260%22%20as%3D%22geometry%22%2F%3E%3C%2FmxCell%3E%3C%2Froot%3E%3C%2FmxGraphModel%3E&lt;/span&gt;" style="rounded=0;whiteSpace=wrap;html=1;" vertex="1" parent="1">
          <mxGeometry x="320" y="450" width="120" height="60" as="geometry" />
        </mxCell>
        <mxCell id="-x_1tK4yJzvQ5M3ZGs4e-7" value="&lt;font style=&quot;font-size: 16px;&quot;&gt;Title&lt;/font&gt;" style="rounded=0;whiteSpace=wrap;html=1;" vertex="1" parent="1">
          <mxGeometry y="530" width="120" height="60" as="geometry" />
        </mxCell>
        <mxCell id="-x_1tK4yJzvQ5M3ZGs4e-8" value="&lt;font style=&quot;font-size: 16px;&quot;&gt;Employee&lt;/font&gt;" style="rounded=0;whiteSpace=wrap;html=1;" vertex="1" parent="1">
          <mxGeometry x="140" y="410" width="120" height="60" as="geometry" />
        </mxCell>
        <mxCell id="-x_1tK4yJzvQ5M3ZGs4e-9" value="&lt;font style=&quot;font-size: 16px;&quot;&gt;ItemStatistic&lt;/font&gt;" style="rounded=0;whiteSpace=wrap;html=1;" vertex="1" parent="1">
          <mxGeometry x="130" y="-90" width="120" height="60" as="geometry" />
        </mxCell>
        <mxCell id="-x_1tK4yJzvQ5M3ZGs4e-10" value="&lt;font style=&quot;font-size: 16px;&quot;&gt;Revenue&lt;/font&gt;" style="rounded=0;whiteSpace=wrap;html=1;" vertex="1" parent="1">
          <mxGeometry x="-120" y="300" width="120" height="60" as="geometry" />
        </mxCell>
        <mxCell id="-x_1tK4yJzvQ5M3ZGs4e-11" value="&lt;font style=&quot;font-size: 16px;&quot;&gt;Size&lt;/font&gt;" style="rounded=0;whiteSpace=wrap;html=1;" vertex="1" parent="1">
          <mxGeometry x="-110" y="90" width="120" height="60" as="geometry" />
        </mxCell>
        <mxCell id="-x_1tK4yJzvQ5M3ZGs4e-12" value="" style="endArrow=none;html=1;rounded=0;exitX=0.5;exitY=0;exitDx=0;exitDy=0;entryX=0.5;entryY=1;entryDx=0;entryDy=0;" edge="1" parent="1" source="-x_1tK4yJzvQ5M3ZGs4e-2" target="-x_1tK4yJzvQ5M3ZGs4e-1">
          <mxGeometry width="50" height="50" relative="1" as="geometry">
            <mxPoint x="115" y="240" as="sourcePoint" />
            <mxPoint x="165" y="190" as="targetPoint" />
          </mxGeometry>
        </mxCell>
        <mxCell id="-x_1tK4yJzvQ5M3ZGs4e-13" value="&lt;font style=&quot;font-size: 14px;&quot;&gt;1-n&lt;/font&gt;" style="edgeLabel;html=1;align=center;verticalAlign=middle;resizable=0;points=[];" vertex="1" connectable="0" parent="-x_1tK4yJzvQ5M3ZGs4e-12">
          <mxGeometry x="-0.0107" y="-1" relative="1" as="geometry">
            <mxPoint as="offset" />
          </mxGeometry>
        </mxCell>
        <mxCell id="-x_1tK4yJzvQ5M3ZGs4e-14" value="" style="endArrow=none;html=1;rounded=0;exitX=0.5;exitY=0;exitDx=0;exitDy=0;entryX=0;entryY=0.75;entryDx=0;entryDy=0;" edge="1" parent="1" source="-x_1tK4yJzvQ5M3ZGs4e-7" target="-x_1tK4yJzvQ5M3ZGs4e-8">
          <mxGeometry width="50" height="50" relative="1" as="geometry">
            <mxPoint x="120" y="535" as="sourcePoint" />
            <mxPoint x="120" y="425" as="targetPoint" />
          </mxGeometry>
        </mxCell>
        <mxCell id="-x_1tK4yJzvQ5M3ZGs4e-15" value="&lt;font style=&quot;font-size: 14px;&quot;&gt;1-n&lt;/font&gt;" style="edgeLabel;html=1;align=center;verticalAlign=middle;resizable=0;points=[];" vertex="1" connectable="0" parent="-x_1tK4yJzvQ5M3ZGs4e-14">
          <mxGeometry x="-0.0107" y="-1" relative="1" as="geometry">
            <mxPoint as="offset" />
          </mxGeometry>
        </mxCell>
        <mxCell id="-x_1tK4yJzvQ5M3ZGs4e-16" value="" style="endArrow=none;html=1;rounded=0;entryX=1;entryY=0.5;entryDx=0;entryDy=0;" edge="1" parent="1" source="-x_1tK4yJzvQ5M3ZGs4e-4" target="-x_1tK4yJzvQ5M3ZGs4e-1">
          <mxGeometry width="50" height="50" relative="1" as="geometry">
            <mxPoint x="300" y="220" as="sourcePoint" />
            <mxPoint x="210" y="120" as="targetPoint" />
          </mxGeometry>
        </mxCell>
        <mxCell id="-x_1tK4yJzvQ5M3ZGs4e-20" value="&lt;font style=&quot;font-size: 14px;&quot;&gt;n-n&lt;/font&gt;" style="edgeLabel;html=1;align=center;verticalAlign=middle;resizable=0;points=[];" vertex="1" connectable="0" parent="-x_1tK4yJzvQ5M3ZGs4e-16">
          <mxGeometry x="-0.0524" y="3" relative="1" as="geometry">
            <mxPoint as="offset" />
          </mxGeometry>
        </mxCell>
        <mxCell id="-x_1tK4yJzvQ5M3ZGs4e-21" value="" style="endArrow=none;html=1;rounded=0;exitX=0.5;exitY=0;exitDx=0;exitDy=0;entryX=0.5;entryY=1;entryDx=0;entryDy=0;" edge="1" parent="1" source="-x_1tK4yJzvQ5M3ZGs4e-4">
          <mxGeometry width="50" height="50" relative="1" as="geometry">
            <mxPoint x="379.58000000000004" y="170" as="sourcePoint" />
            <mxPoint x="379.58000000000004" y="60" as="targetPoint" />
          </mxGeometry>
        </mxCell>
        <mxCell id="-x_1tK4yJzvQ5M3ZGs4e-22" value="&lt;font style=&quot;font-size: 14px;&quot;&gt;1-n&lt;/font&gt;" style="edgeLabel;html=1;align=center;verticalAlign=middle;resizable=0;points=[];" vertex="1" connectable="0" parent="-x_1tK4yJzvQ5M3ZGs4e-21">
          <mxGeometry x="-0.0107" y="-1" relative="1" as="geometry">
            <mxPoint as="offset" />
          </mxGeometry>
        </mxCell>
        <mxCell id="-x_1tK4yJzvQ5M3ZGs4e-23" value="" style="endArrow=none;html=1;rounded=0;exitX=1;exitY=0.5;exitDx=0;exitDy=0;entryX=0;entryY=0.5;entryDx=0;entryDy=0;" edge="1" parent="1" source="-x_1tK4yJzvQ5M3ZGs4e-4" target="-x_1tK4yJzvQ5M3ZGs4e-5">
          <mxGeometry width="50" height="50" relative="1" as="geometry">
            <mxPoint x="560" y="250" as="sourcePoint" />
            <mxPoint x="560" y="140" as="targetPoint" />
          </mxGeometry>
        </mxCell>
        <mxCell id="-x_1tK4yJzvQ5M3ZGs4e-24" value="&lt;font style=&quot;font-size: 14px;&quot;&gt;1-n&lt;/font&gt;" style="edgeLabel;html=1;align=center;verticalAlign=middle;resizable=0;points=[];" vertex="1" connectable="0" parent="-x_1tK4yJzvQ5M3ZGs4e-23">
          <mxGeometry x="-0.0107" y="-1" relative="1" as="geometry">
            <mxPoint as="offset" />
          </mxGeometry>
        </mxCell>
        <mxCell id="-x_1tK4yJzvQ5M3ZGs4e-25" value="&lt;font style=&quot;font-size: 16px;&quot;&gt;Bill&lt;/font&gt;" style="rounded=0;whiteSpace=wrap;html=1;" vertex="1" parent="1">
          <mxGeometry x="530" y="340" width="120" height="60" as="geometry" />
        </mxCell>
        <mxCell id="-x_1tK4yJzvQ5M3ZGs4e-27" value="" style="endArrow=none;html=1;rounded=0;entryX=0.5;entryY=1;entryDx=0;entryDy=0;exitX=0.451;exitY=-0.014;exitDx=0;exitDy=0;exitPerimeter=0;" edge="1" parent="1" source="-x_1tK4yJzvQ5M3ZGs4e-25" target="-x_1tK4yJzvQ5M3ZGs4e-4">
          <mxGeometry width="50" height="50" relative="1" as="geometry">
            <mxPoint x="365" y="360" as="sourcePoint" />
            <mxPoint x="364.58000000000004" y="260" as="targetPoint" />
          </mxGeometry>
        </mxCell>
        <mxCell id="-x_1tK4yJzvQ5M3ZGs4e-29" value="&lt;font style=&quot;font-size: 14px;&quot;&gt;1-1&lt;/font&gt;" style="edgeLabel;html=1;align=center;verticalAlign=middle;resizable=0;points=[];" vertex="1" connectable="0" parent="-x_1tK4yJzvQ5M3ZGs4e-27">
          <mxGeometry x="0.0556" y="-2" relative="1" as="geometry">
            <mxPoint as="offset" />
          </mxGeometry>
        </mxCell>
        <mxCell id="-x_1tK4yJzvQ5M3ZGs4e-32" value="" style="endArrow=none;html=1;rounded=0;exitX=1;exitY=0;exitDx=0;exitDy=0;entryX=0;entryY=0.5;entryDx=0;entryDy=0;" edge="1" parent="1" source="-x_1tK4yJzvQ5M3ZGs4e-8" target="-x_1tK4yJzvQ5M3ZGs4e-33">
          <mxGeometry width="50" height="50" relative="1" as="geometry">
            <mxPoint x="250" y="390" as="sourcePoint" />
            <mxPoint x="350" y="350" as="targetPoint" />
          </mxGeometry>
        </mxCell>
        <mxCell id="-x_1tK4yJzvQ5M3ZGs4e-33" value="&lt;font style=&quot;font-size: 14px;&quot;&gt;n-n&lt;/font&gt;" style="rhombus;whiteSpace=wrap;html=1;" vertex="1" parent="1">
          <mxGeometry x="360" y="330" width="50" height="40" as="geometry" />
        </mxCell>
        <mxCell id="-x_1tK4yJzvQ5M3ZGs4e-34" value="" style="endArrow=none;html=1;rounded=0;exitX=0.5;exitY=0;exitDx=0;exitDy=0;entryX=0.5;entryY=1;entryDx=0;entryDy=0;" edge="1" parent="1" source="-x_1tK4yJzvQ5M3ZGs4e-6" target="-x_1tK4yJzvQ5M3ZGs4e-33">
          <mxGeometry width="50" height="50" relative="1" as="geometry">
            <mxPoint x="270" y="420" as="sourcePoint" />
            <mxPoint x="360" y="360" as="targetPoint" />
            <Array as="points" />
          </mxGeometry>
        </mxCell>
        <mxCell id="-x_1tK4yJzvQ5M3ZGs4e-35" value="" style="endArrow=none;html=1;rounded=0;exitX=0.5;exitY=0;exitDx=0;exitDy=0;entryX=0.5;entryY=1;entryDx=0;entryDy=0;" edge="1" parent="1" source="-x_1tK4yJzvQ5M3ZGs4e-33" target="-x_1tK4yJzvQ5M3ZGs4e-4">
          <mxGeometry width="50" height="50" relative="1" as="geometry">
            <mxPoint x="280" y="430" as="sourcePoint" />
            <mxPoint x="370" y="270" as="targetPoint" />
          </mxGeometry>
        </mxCell>
        <mxCell id="-x_1tK4yJzvQ5M3ZGs4e-36" value="" style="endArrow=none;html=1;rounded=0;exitX=0.5;exitY=0;exitDx=0;exitDy=0;entryX=0.5;entryY=1;entryDx=0;entryDy=0;" edge="1" parent="1" source="-x_1tK4yJzvQ5M3ZGs4e-1" target="-x_1tK4yJzvQ5M3ZGs4e-9">
          <mxGeometry width="50" height="50" relative="1" as="geometry">
            <mxPoint x="99.58" y="80" as="sourcePoint" />
            <mxPoint x="100" y="-30" as="targetPoint" />
          </mxGeometry>
        </mxCell>
        <mxCell id="-x_1tK4yJzvQ5M3ZGs4e-37" value="&lt;font style=&quot;font-size: 14px;&quot;&gt;1-n&lt;/font&gt;" style="edgeLabel;html=1;align=center;verticalAlign=middle;resizable=0;points=[];" vertex="1" connectable="0" parent="-x_1tK4yJzvQ5M3ZGs4e-36">
          <mxGeometry x="-0.0107" y="-1" relative="1" as="geometry">
            <mxPoint as="offset" />
          </mxGeometry>
        </mxCell>
        <mxCell id="-x_1tK4yJzvQ5M3ZGs4e-38" value="" style="endArrow=none;html=1;rounded=0;exitX=0;exitY=0.5;exitDx=0;exitDy=0;entryX=1;entryY=0.5;entryDx=0;entryDy=0;" edge="1" parent="1" source="-x_1tK4yJzvQ5M3ZGs4e-1" target="-x_1tK4yJzvQ5M3ZGs4e-11">
          <mxGeometry width="50" height="50" relative="1" as="geometry">
            <mxPoint x="120" y="290" as="sourcePoint" />
            <mxPoint x="120" y="180" as="targetPoint" />
          </mxGeometry>
        </mxCell>
        <mxCell id="-x_1tK4yJzvQ5M3ZGs4e-41" value="&lt;font style=&quot;font-size: 14px;&quot;&gt;&lt;font style=&quot;font-size: 14px;&quot;&gt;n&lt;/font&gt;-n&lt;/font&gt;" style="edgeLabel;html=1;align=center;verticalAlign=middle;resizable=0;points=[];" vertex="1" connectable="0" parent="-x_1tK4yJzvQ5M3ZGs4e-38">
          <mxGeometry x="-0.0417" relative="1" as="geometry">
            <mxPoint as="offset" />
          </mxGeometry>
        </mxCell>
      </root>
    </mxGraphModel>
  </diagram>
</mxfile>
